 <svg  version="1.0" xmlns="http://www.w3.org/2000/svg"  width="300.000000pt" height="44.000000pt" viewBox="0 0 300.000000 44.000000"  preserveAspectRatio="xMidYMid meet">  <g transform="translate(0.000000,44.000000) scale(0.100000,-0.100000)" fill="#df9153" stroke="none"> <path d="M46 398 c-21 -29 -20 -41 4 -63 26 -24 25 -62 -2 -84 -44 -36 12 -105 61 -74 22 14 26 57 7 76 -20 20 -21 61 -1 77 20 17 19 60 -2 76 -26 20 -50 17 -67 -8z m57 -22 c8 -19 -15 -37 -32 -26 -17 10 -7 40 13 40 7 0 16 -6 19 -14z m3 -147 c8 -14 -21 -43 -35 -35 -19 12 -13 46 8 46 11 0 23 -5 27 -11z"/> <path d="M196 404 c-19 -18 -21 -55 -4 -72 18 -18 56 -14 75 8 20 23 63 27 63 5 0 -19 48 -31 69 -18 9 6 17 24 19 41 3 26 -2 34 -21 43 -26 12 -67 -2 -67 -21 0 -19 -55 -10 -68 10 -15 24 -45 26 -66 4z m54 -33 c0 -27 -19 -36 -37 -18 -18 18 -9 37 18 37 12 0 19 -7 19 -19z m146 8 c3 -6 0 -17 -7 -25 -18 -17 -44 -2 -36 20 7 18 33 21 43 5z"/> <path d="M624 296 c-28 -28 -34 -42 -34 -76 0 -55 30 -96 80 -111 45 -14 70 -7 70 19 0 15 -6 17 -34 14 -27 -3 -40 2 -60 22 -32 31 -33 67 -2 102 18 22 32 28 60 27 29 -1 36 3 36 18 0 16 -7 19 -41 19 -33 0 -47 -6 -75 -34z"/> <path d="M808 312 c-29 -17 -58 -67 -58 -99 0 -31 38 -82 74 -99 41 -20 73 -14 115 22 102 85 -18 247 -131 176z m116 -42 c44 -43 5 -130 -58 -130 -59 0 -95 66 -65 121 22 42 85 46 123 9z"/> <path d="M1000 215 c0 -111 1 -115 21 -115 21 0 22 3 15 80 -3 44 -4 80 -2 80 3 0 26 -36 52 -80 66 -116 78 -110 81 35 2 108 1 115 -17 115 -18 0 -20 -7 -20 -82 l0 -83 -46 83 c-32 59 -51 82 -65 82 -18 0 -19 -8 -19 -115z"/> <path d="M1190 309 c0 -17 5 -20 25 -17 l25 5 0 -99 c0 -86 2 -99 16 -96 13 2 16 19 18 98 1 92 2 95 24 92 17 -3 22 2 22 17 0 19 -6 21 -65 21 -60 0 -65 -2 -65 -21z"/> <path d="M1350 217 l0 -114 55 -2 c49 -1 55 1 55 19 0 17 -6 20 -40 20 -38 0 -40 2 -40 30 0 27 3 30 34 30 27 0 34 4 32 18 -3 13 -11 16 -35 14 -29 -3 -31 -1 -31 31 l0 35 40 -5 c36 -5 40 -3 40 16 0 19 -6 21 -55 21 l-55 0 0 -113z"/> <path d="M1490 215 c0 -94 3 -115 15 -115 11 0 15 18 17 81 l3 82 45 -82 c30 -54 51 -81 62 -81 16 0 18 12 18 115 0 105 -2 115 -18 115 -17 0 -18 -8 -15 -82 2 -60 1 -79 -7 -68 -24 35 -80 133 -80 141 0 5 -9 9 -20 9 -19 0 -20 -7 -20 -115z"/> <path d="M1680 309 c0 -16 4 -19 20 -14 19 6 20 2 20 -94 0 -94 1 -101 20 -101 19 0 20 7 20 100 0 97 1 100 22 97 14 -1 23 4 26 16 3 15 -5 17 -62 17 -60 0 -66 -2 -66 -21z"/> <path d="M1858 312 c-38 -23 -61 -75 -54 -117 14 -72 146 -133 146 -67 0 15 -6 18 -31 14 -64 -9 -104 75 -60 129 13 16 29 23 55 23 28 0 36 4 36 18 0 24 -54 24 -92 0z"/> <path d="M1980 215 c0 -96 3 -115 15 -115 11 0 15 12 15 50 0 43 3 50 20 50 14 0 27 -15 45 -50 14 -27 32 -50 40 -50 20 0 19 13 -6 61 -19 37 -19 42 -5 58 22 24 20 67 -4 91 -15 15 -33 20 -70 20 l-50 0 0 -115z m107 59 c8 -22 -16 -44 -48 -44 -26 0 -29 3 -29 33 0 32 1 33 36 29 19 -2 38 -11 41 -18z"/> <path d="M2225 238 c-32 -51 -65 -103 -73 -115 -13 -21 -13 -23 7 -23 14 0 28 11 39 30 14 25 23 30 55 30 35 0 37 -2 37 -30 0 -22 5 -30 18 -30 15 0 17 12 17 115 0 110 -1 115 -21 115 -15 0 -36 -24 -79 -92z m65 -8 c0 -36 -2 -40 -25 -40 -14 0 -25 2 -25 4 0 8 42 76 46 76 2 0 4 -18 4 -40z"/> <path d="M2360 215 c0 -111 1 -115 21 -115 20 0 21 4 17 50 l-5 50 34 0 c27 0 34 4 31 17 -2 12 -13 17 -33 18 -25 0 -29 4 -29 29 -1 28 1 30 39 30 29 1 41 5 43 19 3 15 -5 17 -57 17 l-61 0 0 -115z"/> <path d="M2490 309 c0 -17 5 -20 25 -17 l25 5 0 -99 c0 -88 2 -99 17 -96 15 3 17 15 14 99 l-3 97 26 -5 c21 -4 26 -2 26 16 0 19 -5 21 -65 21 -60 0 -65 -2 -65 -21z"/> <path d="M2804 253 c-27 -43 -58 -92 -71 -109 -28 -38 -29 -44 -3 -44 12 0 26 12 35 30 13 26 21 30 56 30 32 0 40 -3 38 -17 -3 -33 1 -43 16 -43 12 0 15 19 15 115 0 107 -1 115 -19 115 -14 0 -34 -24 -67 -77z m56 -18 c0 -43 -1 -45 -30 -45 l-29 0 27 45 c15 24 28 45 30 45 1 0 2 -20 2 -45z"/> <path d="M2930 216 c0 -96 3 -116 15 -116 12 0 15 18 17 100 0 55 1 106 2 112 1 7 -7 14 -16 16 -16 3 -18 -7 -18 -112z"/> <path d="M353 270 c-27 -11 -39 -46 -22 -66 10 -13 6 -22 -28 -56 -23 -22 -46 -37 -52 -34 -14 9 -15 66 -1 66 19 0 33 41 21 66 -12 27 -58 33 -79 12 -19 -19 -14 -56 8 -70 26 -17 26 -59 0 -76 -28 -17 -26 -58 4 -77 31 -21 63 -6 72 33 8 34 83 112 101 105 20 -8 53 26 53 53 0 13 -10 30 -22 38 -25 18 -25 18 -55 6z m-105 -43 c4 -21 -25 -34 -40 -19 -8 8 -8 16 2 27 16 19 34 15 38 -8z m150 0 c4 -20 -25 -34 -40 -19 -15 15 -1 44 19 40 10 -2 19 -11 21 -21z m-150 -150 c4 -21 -27 -35 -38 -17 -12 19 0 42 19 38 9 -2 17 -11 19 -21z"/> <path d="M46 104 c-21 -21 -20 -40 5 -65 32 -32 78 -11 79 37 0 42 -53 60 -84 28z m62 -27 c4 -20 -25 -34 -40 -19 -15 15 -1 44 19 40 10 -2 19 -11 21 -21z"/> <path d="M335 96 c-29 -44 18 -91 65 -66 25 13 28 75 4 84 -31 12 -54 6 -69 -18z m63 -19 c4 -20 -25 -34 -40 -19 -15 15 -1 44 19 40 10 -2 19 -11 21 -21z"/> </g> </svg> 